<?xml version="1.0" encoding="UTF-8" standalone="no"?>
<!-- Created with Inkscape (http://www.inkscape.org/) -->

<svg
   xmlns:dc="http://purl.org/dc/elements/1.1/"
   xmlns:cc="http://creativecommons.org/ns#"
   xmlns:rdf="http://www.w3.org/1999/02/22-rdf-syntax-ns#"
   xmlns:svg="http://www.w3.org/2000/svg"
   xmlns="http://www.w3.org/2000/svg"
   xmlns:sodipodi="http://sodipodi.sourceforge.net/DTD/sodipodi-0.dtd"
   xmlns:inkscape="http://www.inkscape.org/namespaces/inkscape"
   version="1.1"
   id="svg3713"
   width="2666.6667"
   height="2133.3333"
   viewBox="0 0 2666.6667 2133.3333"
   sodipodi:docname="bell-vector.svg"
   inkscape:version="0.92.3 (2405546, 2018-03-11)">
  <metadata
     id="metadata3719">
    <rdf:RDF>
      <cc:Work
         rdf:about="">
        <dc:format>image/svg+xml</dc:format>
        <dc:type
           rdf:resource="http://purl.org/dc/dcmitype/StillImage" />
        <dc:title></dc:title>
      </cc:Work>
    </rdf:RDF>
  </metadata>
  <defs
     id="defs3717" />
  <sodipodi:namedview
     pagecolor="#ffffff"
     bordercolor="#666666"
     borderopacity="1"
     objecttolerance="10"
     gridtolerance="10"
     guidetolerance="10"
     inkscape:pageopacity="0"
     inkscape:pageshadow="2"
     inkscape:window-width="1440"
     inkscape:window-height="848"
     id="namedview3715"
     showgrid="false"
     inkscape:zoom="0.21511515"
     inkscape:cx="442.94033"
     inkscape:cy="1534.7273"
     inkscape:window-x="-8"
     inkscape:window-y="-8"
     inkscape:window-maximized="1"
     inkscape:current-layer="svg3713" />
  <path
     style="fill:#0000ff;stroke-width:1.33333337"
     d="m 1322.3138,1851.6657 c -271.0039,-8.0285 -406.33614,-18.8297 -589.99994,-47.089 -129.6695,-19.9516 -198.7658,-35.5971 -271.5098,-61.478 -45.1902,-16.0779 -73.633,-32.1911 -85.333,-48.3424 -3.5255,-4.867 -3.8409,-6.2775 -4.0412,-18.0787 -0.1963,-11.5625 -0.3088,-12.0911 -1.1636,-5.4667 -0.5204,4.0334 -0.838,-17.2666 -0.7058,-47.3333 0.21,-47.7431 0.5317,-55.5495 2.5397,-61.6369 4.4358,-13.447 26.9765,-33.3663 51.924,-45.8856 30.7083,-15.4102 47.9106,-28.8058 68.2468,-53.1442 11.9518,-14.304 18.9188,-25.6568 31.1292,-50.7252 24.6509,-50.6089 49.0479,-77.8268 86.0181,-95.9638 7.4549,-3.6573 12.5171,-6.8496 11.4585,-7.2259 -1.0429,-0.3707 -6.3963,-2.2673 -11.8963,-4.2145 -19.7401,-6.9888 -42.5786,-20.0568 -55.7518,-31.9007 -8.2629,-7.429 -11.3969,-15.3379 -15.8385,-39.9699 -4.0643,-22.5392 -5.7949,-67.3892 -3.1241,-80.9647 1.9541,-9.9325 6.6858,-20.8341 10.5219,-24.2419 1.5726,-1.397 2.8592,-3.2143 2.8592,-4.0385 0,-2.4079 16.0091,-17.4106 24,-22.4913 9.187,-5.8413 22.1447,-17.0981 28.6207,-24.8639 8.2067,-9.8415 13.6621,-22.6476 21.4521,-50.3579 24.1219,-85.80457 41.6477,-130.00837 70.9858,-179.04167 29.8445,-49.87957 55.3885,-81.06366 97.6081,-119.16006 38.3131,-34.5714 73.4448,-58.184 124.9955,-84.01145 51.232,-25.66782 144.12764,-52.3935 222.62444,-64.04811 37.0815,-5.50559 78.5619,-9.769 126.1349,-12.96431 l 45.0882,-3.02842 -0.9049,-9.65623 c -1.3368,-14.2656 0.8321,-21.57092 9.0848,-30.6008 3.7028,-4.05138 9.4874,-8.77221 12.8547,-10.49073 3.3673,-1.71851 7.7928,-4.88471 9.8345,-7.03601 l 3.7122,-3.91146 -5.5105,-3.81874 c -9.3551,-6.48312 -20.5603,-19.77966 -23.228,-27.56344 -3.5946,-10.48803 -4.4263,-41.96992 -1.388,-52.54072 6.7398,-23.44906 26.8529,-38.99092 55.0535,-42.54119 l 7.0181,-0.88352 -0.3514,-43.53906 -0.3514,-43.53907 -8.6667,-1.04285 c -16.1268,-1.94051 -17.7888,-2.56274 -20.5324,-7.68692 -3.2904,-6.14556 -2.0818,-13.11752 3.1875,-18.38682 7.6951,-7.69514 37.2437,-17.12298 56.0116,-17.87122 l 8.6667,-0.34552 0.4064,5.59254 c 0.4591,6.31714 2.6128,5.35787 -18.5317,8.25387 -16.5588,2.26793 -41.4878,12.46483 -39.2653,16.06093 0.3491,0.56494 5.276,1.4195 10.9487,1.899 6.0877,0.5146 12.3564,1.93644 15.2985,3.46995 3.0262,1.57735 9.0756,2.91624 15.3973,3.40783 14.8567,1.15529 16.4128,1.60613 16.4128,4.75534 0,2.56583 -0.5547,2.67479 -9.6667,1.89907 -5.3167,-0.45263 -10.9235,-1.077 -12.4597,-1.38752 -2.7073,-0.54727 -2.8197,0.0541 -3.6666,19.62087 -0.4806,11.10198 -0.8737,32.09003 -0.8737,46.6401 v 26.45468 h 13.3333 c 10.963,0 13.3334,0.35556 13.3334,2 0,1.64444 -2.3704,2 -13.3334,2 -9.9591,0 -13.3333,0.43281 -13.3333,1.71027 0,1.19161 -4.3747,2.17521 -14.4253,3.2434 -17.6724,1.87824 -27.0113,5.68104 -35.9329,14.6318 -9.6625,9.69406 -12.5155,16.94774 -13.3248,33.87749 -0.5031,10.52685 -0.091,16.7582 1.6182,24.43863 2.1533,9.67868 2.7961,10.8175 10.5125,18.625 4.5204,4.5738 11.8189,10.33678 16.2189,12.80665 4.4,2.46987 8.3,4.92235 8.6667,5.44993 1.3153,1.89255 16.9934,4.05458 35,4.82656 18.2852,0.78392 18.3334,0.79444 18.3334,4.01064 v 3.22466 l -14.3334,-0.84654 c -13.7819,-0.81396 -29.7824,-2.53049 -38.4625,-4.12622 -3.7722,-0.69348 -4.5571,-0.1635 -9.0786,6.13013 -3.2063,4.46299 -5.6261,6.62959 -6.8708,6.15193 -2.6308,-1.00954 -5.9214,0.41688 -5.9214,2.56686 0,0.97306 -2.4947,3.45888 -5.5438,5.52401 -3.0491,2.06515 -7.3252,5.96911 -9.5023,8.67547 -3.6341,4.51746 -3.949,5.74022 -3.842,14.92262 0.064,5.50108 0.8132,14.00349 1.6649,18.89425 l 1.5486,8.89228 6.9589,3.18591 c 9.4959,4.34736 28.4763,6.96185 58.319,8.03328 15.1101,0.54248 25.0634,1.42597 25.0634,2.22473 0,0.8612 -9.4501,1.0363 -27.0001,0.50027 -38.8886,-1.18777 -52.7544,-3.67099 -64.3333,-11.52144 l -5.3333,-3.61599 -33.3334,2.39468 c -121.3056,8.71464 -162.4806,14.53151 -239.3945,33.81971 -80.59154,20.21044 -144.91884,48.75777 -202.27554,89.76627 -35.6202,25.4675 -77.8793,65.49569 -102.7069,97.28481 -15.351,19.65524 -39.3247,57.92937 -55.3072,88.29794 -14.5634,27.6722 -32.2864,76.8491 -49.0135,135.99997 -11.9854,42.383 -17.3161,53.6294 -32.5479,68.6666 -5.9425,5.8667 -16.2955,14.4169 -23.0067,19.0005 -12.2777,8.3856 -23.3944,19.4095 -27.7744,27.5425 -3.0564,5.6755 -2.0702,9.4083 4.7733,18.0658 16.5233,20.9036 61.0753,41.7963 121.92,57.1747 92.4045,23.3549 267.9901,43.6818 531.33334,61.5105 39.6619,2.6851 140.9501,8.6873 169.3334,10.0343 31.136,1.4777 34.6667,1.9651 34.6667,4.7855 0,3.1353 2.1852,3.1094 -45.004,0.533 -319.2631,-17.4304 -556.99264,-40.8898 -669.90514,-66.1067 -81.4863,-18.1986 -132.6389,-41.7036 -150.6103,-69.2068 -2.1735,-3.3263 -2.1802,-3.3167 -3.1842,4.6096 -2.7614,21.8011 3.3185,80.3836 9.9474,95.8484 3.4427,8.0315 19.0457,19.7419 39.3538,29.5362 17.9599,8.6617 26.2808,11.5447 52.069,18.0405 16.7057,4.208 19.4683,5.2428 16.7721,6.282 -1.7754,0.6843 -2.6754,1.5856 -2,2.0029 2.9591,1.8283 102.7418,22.3895 150.4864,31.0092 179.2952,32.3694 325.95504,45.672 531.74154,48.2312 67.0463,0.8339 70.3334,0.9892 70.3334,3.324 0,2.336 -2.4531,2.4488 -53.0001,2.4391 -114.7775,-0.023 -247.7781,-7.1153 -351.6666,-18.7549 -99.32074,-11.1278 -216.06474,-30.8763 -327.87674,-55.4641 l -34.5435,-7.5962 -8.7899,3.0815 c -22.5753,7.9142 -43.049,19.5622 -56.6714,32.242 l -7.812,7.2713 2.0654,3.9487 c 5.1163,9.7812 15.9464,17.7805 38.7591,28.6278 91.7109,43.6084 294.7783,77.866 552.86904,93.2694 63.5184,3.7909 120.1068,5.8904 201.6666,7.482 42.8789,0.8368 45.0001,0.9965 45.0001,3.3905 0,2.3843 -1.478,2.5116 -29.0001,2.4985 -49.7885,-0.024 -142.0716,-3.2014 -214.3333,-7.3812 -183.90144,-10.637 -350.88614,-32.5049 -457.33334,-59.891 -76.6493,-19.72 -126.6016,-41.38 -139.9924,-60.703 l -3.7557,-5.4196 -3.2569,3.0376 c -6.7153,6.2631 -21.6602,30.732 -34.0762,55.7922 -14.8855,30.0445 -24.6331,43.9678 -46.018,65.7318 -15.6099,15.8866 -27.6834,24.5048 -52.2341,37.2859 -18.8299,9.8027 -30.1866,17.6599 -40.7635,28.2027 -9.0126,8.9833 -10.4142,12.5366 -12.0226,30.4802 l -0.9372,10.4554 8.6346,8.2113 c 28.3785,26.9877 103.7289,53.7599 217.7553,77.3689 108.4347,22.4512 265.7602,44.4102 402.00004,56.1096 110.1743,9.4611 272.5034,16.6592 377,16.7172 28.1345,0.016 28.3334,0.036 28.3334,2.8942 v 2.8785 l -70.3334,-0.8548 c -235.107,-2.8573 -448.38204,-21.3233 -657.00004,-56.8849 -156.4455,-26.6683 -262.2328,-58.8274 -298.3912,-90.7103 -3.5152,-3.0996 -6.6345,-5.3923 -6.9318,-5.0951 -0.2973,0.2974 -0.9641,16.8592 -1.482,36.8043 l -0.9414,36.2636 4.9086,7.3929 c 16.5816,24.9738 85.2354,52.9999 192.1712,78.4487 25.4085,6.0468 44.9739,9.8221 94,18.1383 214.2332,36.3392 390.67384,51.5222 669.66664,57.6257 l 74.3334,1.6263 v 5.7441 5.7443 l -40.3334,-0.2714 c -22.1833,-0.1493 -45.4333,-0.4225 -51.6667,-0.6072 z m 97.3334,-56.4548 v -49.3333 h 49.3333 49.3334 v 49.3333 49.3334 h -49.3334 -49.3333 z m 104,-25.3333 v -72 h 71.3333 71.3334 v 72 72 h -71.3334 -71.3333 z m 194.6667,50.6667 v -16 h 16 16 v 16 16 h -16 -16 z m 37.3333,0 v -9.3334 h 9.3333 9.3334 v 9.3334 9.3333 h -9.3334 -9.3333 z m -81.0367,-23 0.37,-19 19,-0.37 19,-0.3699 v 19.3699 19.37 h -19.37 -19.3698 z m 81.0367,-61.6667 v -71.3333 h 71.3333 71.3334 v 71.3333 71.3333 h -71.3334 -71.3333 z m 176,22 v -49.3333 h 49.3333 49.3334 v 49.3333 49.3333 h -49.3334 -49.3333 z m -29.3333,33.95 v -12.7168 l 12.3333,0.3835 12.3333,0.3833 0.3834,12.3333 0.3834,12.3334 h -12.7168 -12.7166 z m 134.6666,3.3833 v -9.3333 h 9.3334 9.3333 v 9.3333 9.3334 h -9.3333 -9.3334 z m -318.6666,-6.6666 v -9.3334 h 9.3333 9.3333 v 9.3334 9.3333 h -9.3333 -9.3333 z m 318.6666,-89.3334 v -82.6666 h 82 82 v 82.6666 82.6667 h -82 -82 z m -362.6666,36.6882 v -36.6882 h 36.6881 36.688 l -0.3547,36.3334 -0.3548,36.3333 -36.3333,0.3548 -36.3333,0.3547 z m 533.3333,7.3118 v -18.6666 h 18.6667 18.6666 v 18.6666 18.6667 h -18.6666 -18.6667 z m 44,-6 v -12.6666 h 12 12 v 12.6666 12.6667 h -12 -12 z m 29.3333,-3.3333 v -9.3333 h 10 10 v 9.3333 9.3333 h -10 -10 z m -378.3833,-8.3333 0.3833,-12.3334 12.3334,-0.3833 12.3333,-0.3835 v 12.7168 12.7167 h -12.7167 -12.7168 z m -481.6167,-8.3334 v -19.3333 h 18.6667 18.6667 v 19.3333 19.3334 h -18.6667 -18.6667 z m 44,0.6667 v -18.6667 h 18.6667 18.6667 v 18.6667 18.6667 h -18.6667 -18.6667 z m 741.3334,-97.3333 v -98.6667 h 98.6666 98.6667 v 98.6667 98.6666 h -98.6667 -98.6666 z m 202.6666,81.3333 v -9.3333 h 9.3334 9.3333 v 9.3333 9.3333 h -9.3333 -9.3334 z m -504,-59.3333 v -62 h 62 62 v 62 62 h -62 -62 z m -389.3333,2 v -49.3334 h 49.3333 49.3334 v 49.3334 49.3333 h -49.3334 -49.3333 z m 104,-16.6667 v -66 h 65.3333 65.3334 v 66 66 h -65.3334 -65.3333 z m -204,15.3333 v -48 h 48.6667 48.6666 v 48 48 h -48.6666 -48.6667 z m 1014.6667,36.6667 v -10 h 9.3333 9.3333 v 10 10 h -9.3333 -9.3333 z m -22.6667,-0.6667 v -9.3333 h 10 10 v 9.3333 9.3334 h -10 -10 z m 0.8889,-12.8889 c -0.4889,-0.4888 -0.8889,-9.1888 -0.8889,-19.3333 v -18.4444 h 19.3333 19.3334 v 19.3333 19.3333 h -18.4444 c -10.1446,0 -18.8446,-0.4 -19.3334,-0.8889 z m -654.2222,-55.1111 v -49.3333 h 50 50 v 49.3333 49.3334 h -50 -50 z m 105.3333,27.3334 v -19.3334 h 18.6667 18.6666 v 19.3334 19.3333 h -18.6666 -18.6667 z m 548,-42 v -25.3334 h 26 26 v 25.3334 25.3333 h -26 -26 z m -547.7033,-1.6667 0.37,-19 19,-0.37 19,-0.3699 v 19.3699 19.37 h -19.37 -19.3699 z m 173.0366,0.3333 v -16 h 16.6667 16.6667 v 16 16 h -16.6667 -16.6667 z m 36,-49.3333 v -65.3333 h 66 66 v 65.3333 65.3333 h -66 -66 z m -653.3333,-54.6667 v -98.6666 h 99.3333 99.3334 v 98.6666 98.6667 h -99.3334 -99.3333 z m 490.6667,68 v -16 h 16.6666 16.6667 v 16 16 h -16.6667 -16.6666 z m 501.3333,-2 v -10 h 9.3333 9.3334 v 10 10 h -9.3334 -9.3333 z m -788.7171,-2.323 c -0.3526,-0.9223 -0.4856,-37.977 -0.2954,-82.3436 l 0.3458,-80.6667 h 82 82 v 82 82 l -81.7045,0.3436 c -64.6549,0.2719 -81.8384,0 -82.3459,-1.3333 z m 168.7171,-45.677 v -46 h 46 46 v 46 46 h -46 -46 z m 134.6667,-41.3333 v -71.3333 h 71.3333 71.3333 v 71.3333 71.3333 h -71.3333 -71.3333 z m 282.6666,-0.6667 v -49.3333 h 49.3334 49.3333 v 49.3333 49.3334 h -49.3333 -49.3334 z m 102.6667,28.6667 v -19.3333 h 19.3333 19.3334 v 19.3333 19.3333 h -19.3334 -19.3333 z m -422.6667,-12.6667 v -16 h 16 16 v 16 16 h -16 -16 z m 262.6667,-34.6666 v -25.3334 h 26 26 v 25.3334 25.3333 h -26 -26 z m -352,-37.3334 v -49.3333 h 49.3333 49.3334 v 49.3333 49.3334 h -49.3334 -49.3333 z m 274.6667,11.3334 v -26 h 26 26 v 26 26 h -26 -26 z m 69.3333,-56.0175 v -46.0175 l 45.6667,0.3508 45.6666,0.3508 0.3508,45.6667 0.351,45.6667 h -46.0176 -46.0175 z m 96,26.0175 v -18.6667 h 19.3333 19.3334 v 18.6667 18.6666 h -19.3334 -19.3333 z m -200,-50.6667 v -49.3333 h 49.3333 49.3334 v 49.3333 49.3333 h -49.3334 -49.3333 z m -137.3333,-18 v -66 h 66 66 v 66 66 h -66 -66 z m -481.3334,-2 v -65.3333 h 66 66 v 65.3333 65.3333 h -66 -66 z m 137.3334,16 v -49.3333 h 49.3333 49.3333 v 49.3333 49.3333 h -49.3333 -49.3333 z m 104,-17.3333 v -65.3334 h 65.3333 65.3333 v 65.3334 65.3333 h -65.3333 -65.3333 z m 137.3333,-12 v -49.3334 h 49.3333 49.3334 v 49.3334 49.3333 h -49.3334 -49.3333 z m 240,-120 v -98.6667 h 99.3333 99.3334 v 98.6667 98.6666 h -99.3334 -99.3333 z m -425.3333,79.3333 v -16.6667 h 16 16 v 16.6667 16.6667 h -16 -16 z m -56,-10 v -25.3333 h 26 26 v 25.3333 25.3333 h -26 -26 z m 684,2.6667 v -12 h 12.6666 12.6667 v 12 12 h -12.6667 -12.6666 z m -372,-90 v -82 h 82.6666 82.6667 v 82 82 h -82.6667 -82.6666 z m -442.6667,55.3333 v -25.3333 h 26 26 v 25.3333 25.3333 h -26 -26 z m 58.6667,12.7167 v -12.7167 h 12.7166 12.7168 l -0.3834,12.3333 -0.3834,12.3334 -12.3333,0.3834 -12.3333,0.3833 z m 30.6666,-0.05 v -12.6666 h 12.6667 12.6667 v 12.6666 12.6667 h -12.6667 -12.6667 z m 745.3334,-8.6666 v -12 h 12.6666 12.6667 v 12 12 h -12.6667 -12.6666 z m -597.3334,-17.3334 v -25.3333 h 26 26 v 25.3333 25.3334 h -26 -26 z m 58.6667,-56.6666 v -71.3334 h 71.3333 71.3334 v 71.3334 71.3333 h -71.3334 -71.3333 z m -102.6667,46 v -16 h 16.6667 16.6667 v 16 16 h -16.6667 -16.6667 z m -136.4444,11.1111 c -0.4889,-0.489 -0.8889,-30.189 -0.8889,-66.0001 v -65.1111 h 66 66 v 66 66 h -65.1111 c -35.8112,0 -65.5112,-0.4 -66,-0.8889 z m 757.7778,-25.7779 v -25.3333 h 26 26 v 25.3333 25.3334 h -26 -26 z m -788,-4.6166 v -12.7167 h 12.7166 12.7168 l -0.3834,12.3333 -0.3834,12.3334 -12.3333,0.3834 -12.3333,0.3833 z m 165.3333,-51.3834 v -49.3333 h 49.3333 49.3334 v 49.3333 49.3334 h -49.3334 -49.3333 z m -194.6667,22.0501 v -12.7167 h 12.7167 12.7168 l -0.3835,12.3333 -0.3833,12.3333 -12.3333,0.3834 -12.3334,0.3834 z m 818.6667,-10.0501 v -12 h 12 12 v 12 12 h -12 -12 z m -821.3333,-48.6666 v -12.6667 h 12.6666 12.6667 v 12.6667 12.6666 h -12.6667 -12.6666 z m 758.6666,-26 v -16 h 16 16 v 16 16 h -16 -16 z m -30.6666,1.9499 v -12.7166 l 12.3333,0.3833 12.3333,0.3834 0.3834,12.3333 0.3834,12.3333 h -12.7168 -12.7166 z m -180,-40.6166 v -51.99987 h 52.6666 52.6667 v 51.99987 52 h -52.6667 -52.6666 z m -179.683,-0.3333 0.3496,-49.66657 49.6667,-0.3496 49.6667,-0.3496 v 50.01617 50.0162 h -50.0163 -50.0161 z m -370.0948,47.4444 c -0.4889,-0.4889 -0.8889,-45.1889 -0.8889,-99.33327 v -98.4444 h 99.3333 99.3334 v 99.3333 99.33327 h -98.4444 c -54.1446,0 -98.8446,-0.4 -99.3334,-0.8889 z m 201.7778,-81.77767 v -82.6667 h 82 82 v 82.6667 82.66657 h -82 -82 z m 273.3333,57.33327 v -25.3333 h 26 26 v 25.3333 25.3333 h -26 -26 z m 186.6667,12.6667 v -12.6667 h 12.6666 12.6667 v 12.6667 12.6666 h -12.6667 -12.6666 z m 0,-67.33327 v -49.3334 h 49.3333 49.3333 v 49.3334 49.33327 h -49.3333 -49.3333 z m -148,7.99997 v -15.99997 h 16.6666 16.6667 v 15.99997 15.9999 h -16.6667 -16.6666 z m -21.3334,5.3333 v -9.3333 h 9.3334 9.3333 v 9.3333 9.3333 h -9.3333 -9.3334 z m -120,-75.99997 v -40 h 40 40 v 40 40 h -40 -40 z m 86.6667,-60.6667 v -99.3333 h 99.3333 99.3334 v 99.3333 99.3334 h -99.3334 -99.3333 z m 204,32 V 869.8777 h 36.6667 36.6666 v 36.66663 36.6667 h -36.6666 -36.6667 z M 1644.9805,853.8777 v -52 h 52 52 v 52 52.00003 h -52 -52 z m 110.6667,-22.66667 V 773.8777 h 56.6667 56.6666 v 57.33333 57.3333 h -56.6666 -56.6667 z m -201.3333,6 v -36.66666 h 36.6666 36.6667 v 36.66666 36.66667 h -36.6667 -36.6666 z m 525.3333,7.33334 V 825.8777 h 19.3333 19.3334 v 18.66667 18.66666 h -19.3334 -19.3333 z m -629.3333,-40 v -49.33333 h 49.3333 49.3333 v 49.33333 49.33333 h -49.3333 -49.3333 z m 629.3333,6 v -10 h 10 10 v 10 10 h -10 -10 z m -528,-114 V 597.8777 h 99.3333 99.3334 v 98.66667 98.66666 h -99.3334 -99.3333 z m 202.6667,2 v -71.33333 h 72 72 v 71.33333 71.33333 h -72 -72 z m 149.3333,34 v -36 h 36.6667 36.6666 v 36 36 h -36.6666 -36.6667 z m 80,16 V 729.8777 h 18.6667 18.6666 v 18.66667 18.66666 h -18.6666 -18.6667 z m 42.6667,9.33333 v -9.33333 h 9.3333 9.3333 v 9.33333 9.33333 h -9.3333 -9.3333 z m -604,-36.63788 v -26.02878 h 26.0288 26.0288 l -0.3622,25.66666 -0.3621,25.66667 -25.6667,0.36212 -25.6666,0.36213 z m 57.6429,-6.36212 0.3571,-32.33333 32.3333,-0.35704 32.3333,-0.35704 v 32.69037 32.69038 h -32.6904 -32.6904 z m 425.0237,-37 v -12 h 12 12 v 12 12 h -12 -12 z m 29.3334,2.66667 v -9.33333 h 9.3333 9.3333 v 9.33333 9.33333 h -9.3333 -9.3333 z m -488,-57.33333 V 573.8777 h 49.3333 49.3333 v 49.33334 49.33333 h -49.3333 -49.3333 z m -29.3334,-80 v -25.33333 h 26 26 v 25.33333 25.33333 h -26 -26 z m 56,6 v -19.33333 h 19.3334 19.3333 v 19.33333 19.33333 h -19.3333 -19.3334 z m -54.6666,-48.66667 v -12 h 12 12 v 12 12 h -12 -12 z m 28,-32.66666 v -26 h 25.3333 25.3333 v 26 26 h -25.3333 -25.3333 z m -29.3334,-13.38338 v -12.71669 l 12.3334,0.38336 12.3333,0.38337 0.3833,12.33334 0.3835,12.33333 h -12.7168 -12.7167 z m 2.6667,-43.97874 v -26.0288 l 25.6667,0.36213 25.6666,0.36212 0.3622,25.66667 0.3621,25.66666 h -26.0288 -26.0288 z m 57.3333,13.36212 v -12.66667 h 12 12 v 12.66667 12.66666 h -12 -12 z m -61.3333,-56.66667 v -12 h 12.6667 12.6666 v 12 12 h -12.6666 -12.6667 z m 0,-33.33333 v -16 h 16 16 v 16 16 h -16 -16 z m 0,-32.66667 v -12.66666 h 12.6667 12.6666 v 12.66666 12.66667 h -12.6666 -12.6667 z m 0,-33.33333 v -16.66667 h 16 16 v 16.66667 16.66667 h -16 -16 z m 36,0.66667 v -9.33334 h 9.3333 9.3334 v 9.33334 9.33333 h -9.3334 -9.3333 z"
     id="path3723"
     inkscape:connector-curvature="0" />
</svg>
